<svg xmlns="http://www.w3.org/2000/svg" viewBox="0 0 32 32">
  <g fill="#4f46e5">
    <rect x="10" y="1" width="2" height="5" rx="1" />
    <rect x="15" y="1" width="2" height="5" rx="1" />
    <rect x="20" y="1" width="2" height="5" rx="1" />
    <rect x="10" y="26" width="2" height="5" rx="1" />
    <rect x="15" y="26" width="2" height="5" rx="1" />
    <rect x="20" y="26" width="2" height="5" rx="1" />
    <rect x="1" y="10" width="5" height="2" rx="1" />
    <rect x="1" y="15" width="5" height="2" rx="1" />
    <rect x="1" y="20" width="5" height="2" rx="1" />
    <rect x="26" y="10" width="5" height="2" rx="1" />
    <rect x="26" y="15" width="5" height="2" rx="1" />
    <rect x="26" y="20" width="5" height="2" rx="1" />
    <rect x="5" y="5" width="22" height="22" rx="5" />
  </g>
  <g fill="#ffffff">
    <circle cx="11" cy="11" r="2" />
    <circle cx="21" cy="11" r="2" />
    <circle cx="16" cy="16" r="2" />
    <circle cx="11" cy="21" r="2" />
    <circle cx="21" cy="21" r="2" />
  </g>
</svg>
